# xmcd
#
# Track frame offsets:
#	150
#	20642
#	42227
#	61621
#	80435
#	97678
#	119252
#	141238
#	161727
#	178024
#	191832
#	208442
#
# Disc length: 3042 seconds
#
# Revision: 0
# Processed by: cddbd v1.5.2PL0 Copyright (c) Steve Scherf et al.
# Submitted via: FairStars CD Ripper 1.90
#
DISCID=a50be00c
DTITLE=The Mighty Orq - Love In A Hurricane
DYEAR=2016
DGENRE=Rock
TTITLE0=Sweet In Between
TTITLE1=Falling Down
TTITLE2=Pack It Up
TTITLE3=Say It With Silence
TTITLE4=Love In A Hurricane
TTITLE5=The Possum Song
TTITLE6=Carry Me Home
TTITLE7=Your In Love (That's Alright)
TTITLE8=Big Boat
TTITLE9=Let Me Have My Fun
TTITLE10=Deat Letter Blues
TTITLE11=Cannon Ball
EXTD=
EXTT0=
EXTT1=
EXTT2=
EXTT3=
EXTT4=
EXTT5=
EXTT6=
EXTT7=
EXTT8=
EXTT9=
EXTT10=
EXTT11=
PLAYORDER=
